<svg xmlns="http://www.w3.org/2000/svg" xmlns:xlink="http://www.w3.org/1999/xlink" width="48" height="48" viewBox="0 0 48 48">
  <defs>
    <filter id="Elipse_17" x="0" y="0" width="48" height="48" filterUnits="userSpaceOnUse">
      <feOffset dy="3" input="SourceAlpha"/>
      <feGaussianBlur stdDeviation="3" result="blur"/>
      <feFlood flood-opacity="0.161"/>
      <feComposite operator="in" in2="blur"/>
      <feComposite in="SourceGraphic"/>
    </filter>
  </defs>
  <g id="Grupo_23" data-name="Grupo 23" transform="translate(188 2068) rotate(180)">
    <g transform="matrix(-1, 0, 0, -1, 188, 2068)" filter="url(#Elipse_17)">
      <circle id="Elipse_17-2" data-name="Elipse 17" cx="15" cy="15" r="15" transform="translate(39 36) rotate(180)" fill="#fbc707"/>
    </g>
    <path id="Caminho_2" data-name="Caminho 2" d="M10.141,9.25a.943.943,0,0,0,0-1.334L2.5.276a.943.943,0,0,0-1.334,0l-.891.891a.943.943,0,0,0,0,1.333L6.329,8.582.275,14.665A.943.943,0,0,0,.276,16l.891.891a.943.943,0,0,0,1.334,0Z" transform="translate(167.417 2055.165) rotate(180)" fill="#fff"/>
  </g>
</svg>
